<svg xmlns="http://www.w3.org/2000/svg" xml:space="preserve" width="40" height="40" viewBox="0 0 10.583333 10.583333"><circle cx="5.2916665" cy="5.2916665" r="5.2916665" style="fill:floralwhite;fill-opacity:1;stroke:none;stroke-width:.529169;stroke-linecap:round;stroke-linejoin:round;stroke-dasharray:none;stroke-opacity:1"/><path d="M4.6035199 2.7378054c-.5854313-.209979-.453617-.9886948.0906751-1.1464283.5187229-.1503236 1.2818379.2750631.6571508.9296778" style="fill:none;stroke:dimgray;stroke-width:.529167;stroke-linecap:round;stroke-linejoin:round;stroke-dasharray:none;stroke-opacity:1"/><path d="M6.609066 3.0664096c.4586711-.2020796.9708539-.2542604 1.5112524-.2274024.2785589.6423094-.4361117 1.0062105-.8795655 1.1677987-1.0371544-.8140067-2.1545701-.8672907-3.2636366.2864373-1.4178488-.8380477-1.9794809-2.1301184-1.777549-2.5352434.7201876.2174168 1.3372802.8346935 2.0150012 1.2542461 1.3187374-1.065686 2.8154065.186665 3.1423204.9425428M6.6616228 5.7002667c.8563346-.0690901 2.2016663.1928842 2.4413116.903944.2886433.8564454-.6636821 1.6589484-1.4769502 1.6601282-1.2218245.0017704-1.6290961-1.3357428-1.8421241-2.0967431-.1955378.0288101-1.6117443.7080813-1.8995785 2.0788479" style="fill:none;stroke:dimgray;stroke-width:.529167;stroke-linecap:round;stroke-linejoin:round;stroke-dasharray:none;stroke-opacity:1"/><path d="M3.4021537 7.4375661s.3136282.9130457.7139019 1.0440669c.6858844.2245098 2.0590424-.6692664 2.0590424-.6692664M6.1676447 7.8389538s-.1810903 1.2570173.1598009 1.5209846c.327702.2537538 1.2104244.057792 1.2104244.057792" style="fill:none;stroke:dimgray;stroke-width:.529167;stroke-linecap:round;stroke-linejoin:round;stroke-dasharray:none;stroke-opacity:1"/><path d="M7.0786439 8.4903248c-.2249919.2674773-.2880917.6137674-.3032048.9038686M3.8998693 5.1621989s-.2671972-.8117988-.8170591-.8051273c-.6165752.00748-.7639982.5913113-.7126232 1.0816979.049132.4689708.4584853 1.1321211 1.2040873.9464852M6.8136618 4.1922444c.2155886.1558465.2815592.2267404.3996452.5345438M6.0415287 3.97712c-.331239.0063093-.4706586.0287781-.8340427.3824381" style="fill:none;stroke:dimgray;stroke-width:.529167;stroke-linecap:round;stroke-linejoin:round;stroke-dasharray:none;stroke-opacity:1"/><ellipse cx="6.5596261" cy="5.136682" rx=".27184117" ry=".27196094" style="fill:dimgray;fill-opacity:1;stroke:none;stroke-width:.529167;stroke-linecap:round;stroke-linejoin:round;stroke-dasharray:none;stroke-opacity:1"/><ellipse cx="5.8691263" cy="5.0541086" rx=".27184117" ry=".27196094" style="fill:dimgray;fill-opacity:1;stroke:none;stroke-width:.529167;stroke-linecap:round;stroke-linejoin:round;stroke-dasharray:none;stroke-opacity:1"/><path d="M4.2477043 3.055492c.0097902.4444374-.1734259.8645921-.3190903 1.1367734" style="fill:none;fill-opacity:1;stroke:dimgray;stroke-width:.529167;stroke-linecap:round;stroke-linejoin:round;stroke-dasharray:none;stroke-opacity:1"/></svg>
